<svg xmlns="http://www.w3.org/2000/svg" viewBox="0 0 48 48"><defs><style>.cls-1{fill:#9fdbf3;}.cls-2{fill:#b2e5fb;}.cls-3{fill:#82bcf4;}.cls-4{fill:#8bd1ea;}.cls-5{fill:#6fabe6;}.cls-6{fill:#dad7e5;}.cls-7{fill:#edebf2;}.cls-8{fill:#374f68;}.cls-9{fill:#425b72;}.cls-10{fill:#fc6;}.cls-11{fill:#ffde76;}.cls-12{fill:#de4a8c;}.cls-13{fill:#f26674;}.cls-14{fill:#919191;}.cls-15{fill:#7c7d7d;}</style></defs><title>Mobile Banking</title><g id="Mobile_Banking" data-name="Mobile Banking"><polygon class="cls-1" points="19 33 31 33 31 41 1 41 1 7 31 7 31 15 19 15 19 33"/><polygon class="cls-1" points="19 15 19 33 31 33 31 41 1 41 1 7 31 7 31 15 19 15"/><polygon class="cls-2" points="19 33 31 33 31 41 10 41 10 7 31 7 31 15 19 15 19 33"/><rect class="cls-3" x="29" y="7" width="2" height="34"/><path class="cls-4" d="M18,36V12a1,1,0,0,1,2,0V36A1,1,0,0,1,18,36Z"/><path class="cls-1" d="M18.5,11.15A1,1,0,0,1,19,12c0,26.15.21,24.42-.5,24.85A1,1,0,0,0,20,36V12A1,1,0,0,0,18.5,11.15Z"/><rect class="cls-1" x="20" y="33" width="9" height="1"/><rect class="cls-5" x="29" y="33" width="2" height="1"/><path class="cls-6" d="M47,19V31a2,2,0,0,1-2,2H19V19Z"/><path class="cls-7" d="M47,19V31a2,2,0,0,1-2,2H27a4,4,0,0,1-4-4V19Z"/><path class="cls-8" d="M47,17v2H19V15H45A2,2,0,0,1,47,17Z"/><path class="cls-9" d="M47,17v2H23V15H45A2,2,0,0,1,47,17Z"/><path class="cls-10" d="M39.5,28.31a2,2,0,1,0,0-2.62"/><path class="cls-11" d="M41,25a2,2,0,0,0-1.5.69v.38a2,2,0,0,1,2.32,2.75A2,2,0,0,0,41,25Z"/><circle class="cls-12" cx="38" cy="27" r="2"/><path class="cls-13" d="M38,25a2,2,0,0,0-1.82,1.18,2,2,0,0,1,2.64,2.64A2,2,0,0,0,38,25Z"/><rect class="cls-14" x="23" y="23" width="6" height="4"/><path class="cls-5" d="M31,5V7H1V5A4,4,0,0,1,5,1H27A4,4,0,0,1,31,5Z"/><path class="cls-3" d="M31,5V7H10V5a4,4,0,0,1,4-4H27A4,4,0,0,1,31,5Z"/><path class="cls-5" d="M31,41c0,1.94.13,2.83-.54,4A4,4,0,0,1,27,47H5a4,4,0,0,1-4-4V41Z"/><path class="cls-3" d="M31,41c0,1.94.13,2.83-.54,4H14a4,4,0,0,1-4-4Z"/><path class="cls-15" d="M18,45H14a1,1,0,0,1,0-2h4A1,1,0,0,1,18,45Z"/><path class="cls-8" d="M18,45H14a1,1,0,0,1,0-2h4A1,1,0,0,1,18,45Z"/><path class="cls-9" d="M19,44H15a1,1,0,0,1-1-1h4A1,1,0,0,1,19,44Z"/><rect class="cls-5" x="1" y="7" width="2" height="34"/></g></svg>