<svg id="artwork" xmlns="http://www.w3.org/2000/svg" viewBox="0 0 512 512"><title>Wish_list</title><g id="Wish_list"><path d="M432.66,77.2V472.33H136.84a37.48,37.48,0,0,1-37.48-37.49v-309l-.12-31.71V67.24c0-26.92-28.31-28.31-28.31-28.31H394.39A38.27,38.27,0,0,1,432.66,77.2Z" style="fill:#def1f9"/><rect x="153.96" y="144.72" width="38.97" height="38.97" style="fill:#9dc0d1"/><rect x="153.96" y="215.41" width="38.97" height="38.97" style="fill:#9dc0d1"/><rect x="153.96" y="286.1" width="38.97" height="38.97" style="fill:#9dc0d1"/><rect x="153.96" y="356.79" width="38.97" height="38.97" style="fill:#9dc0d1"/><rect x="246.15" y="150" width="122.78" height="12" style="fill:#83afc6"/><rect x="210.15" y="150" width="21.61" height="12" style="fill:#83afc6"/><rect x="246.15" y="220.69" width="122.78" height="12" style="fill:#83afc6"/><rect x="210.15" y="220.69" width="21.61" height="12" style="fill:#83afc6"/><rect x="246.15" y="291.38" width="122.78" height="12" style="fill:#83afc6"/><rect x="210.15" y="291.38" width="21.61" height="12" style="fill:#83afc6"/><rect x="246.15" y="361.47" width="122.78" height="12" style="fill:#83afc6"/><rect x="210.15" y="361.47" width="21.61" height="12" style="fill:#83afc6"/><polygon points="432.66 293.13 432.66 367.21 420.86 355.41 395.56 380.71 382.34 286.1 432.66 293.13" style="fill:#9dc0d1"/><rect x="279.33" y="82.1" width="110.73" height="23.53" style="fill:#ffaf9f"/><path d="M419.29,472.33h30.9a36.56,36.56,0,0,0,36.55-36.56h-318a36.56,36.56,0,0,1-36.55,36.56Z" style="fill:#9dc0d1"/><path d="M99.24,94.9H42.62V68A28.31,28.31,0,0,1,70.93,39.67h0A28.3,28.3,0,0,1,99.24,68Z" style="fill:#3e4757"/><rect x="139.46" y="128.87" width="38.97" height="38.97" style="fill:#3dc9c9"/><rect x="139.46" y="199.56" width="38.97" height="38.97" style="fill:#3dc9c9"/><rect x="139.46" y="270.24" width="38.97" height="38.97" style="fill:#3dc9c9"/><rect x="139.46" y="340.93" width="38.97" height="38.97" style="fill:#3dc9c9"/><rect x="197.46" y="88.9" width="13" height="12" style="fill:#f47a53"/><rect x="247.46" y="88.9" width="13" height="12" style="fill:#f47a53"/><rect x="222.46" y="88.9" width="13" height="12" style="fill:#f47a53"/><polygon points="495.73 318.54 401.12 305.32 414.34 399.93 439.64 374.63 471.23 406.22 501.76 375.69 470.17 344.1 495.73 318.54" style="fill:#f47a53"/><path d="M439.64,383.11l31.59,31.59,39-39L478.66,344.1l29.83-29.84-69.83-9.75V240.87h-12v62l-32.58-4.55,16,114.41,16.6-16.6v33.68H162.73v6a30.59,30.59,0,0,1-28.64,30.49,30.69,30.69,0,0,1-28.73-30.49V359.82h-12v75.95a42.77,42.77,0,0,0,38.82,42.38v.18c.7,0,1.39,0,2.08-.05.26,0,.52,0,.79,0l.87,0H450.19a42.6,42.6,0,0,0,42.55-42.56v-6H438.66V384.09Zm10.55,83.22H161.76a42.56,42.56,0,0,0,12.55-24.56H480.15A30.6,30.6,0,0,1,450.19,466.33Zm-42-154L483,322.81,461.68,344.1l31.6,31.59-22,22-31.59-31.59-21,21Z"/><path d="M93.36,342.8h12V94.9h-.12V68A34.14,34.14,0,0,0,97,45.67H394.39a32.3,32.3,0,0,1,32.27,32.27V213.55h12V77.94a44.32,44.32,0,0,0-44.27-44.27H70.93A34.35,34.35,0,0,0,36.62,68V100.9H93.36ZM93.24,88.9H48.62V68a22.31,22.31,0,1,1,44.62,0Z"/><path d="M396.06,76.1H273.33v35.53H396.06Zm-12,23.53H285.33V88.1h98.73Z"/><path d="M184.44,193.56h-51v51h51Zm-12,39h-27v-27h27Z"/><path d="M184.44,122.87h-51v51h51Zm-12,39h-27v-27h27Z"/><path d="M184.44,264.24h-51v51h51Zm-12,39h-27v-27h27Z"/><path d="M133.46,385.31h51v-51h-51Zm12-39h27v27h-27Z"/><rect x="246.15" y="161.84" width="122.78" height="12"/><rect x="210.15" y="161.84" width="21.61" height="12"/><rect x="246.15" y="232.53" width="122.78" height="12"/><rect x="210.15" y="232.53" width="21.61" height="12"/><rect x="246.15" y="303.22" width="122.78" height="12"/><rect x="210.15" y="303.22" width="21.61" height="12"/><rect x="246.15" y="373.31" width="122.78" height="12"/><rect x="210.15" y="373.31" width="21.61" height="12"/></g></svg>